<svg xmlns="http://www.w3.org/2000/svg" width="20" height="20" viewBox="0 0 20 20">
  <g id="icon" transform="translate(1.253 0)">
    <path id="Path_9001" data-name="Path 9001" d="M29.177,16.172l-1.323,1.323-3.306-3.31,1.323-1.323a.73.73,0,0,1,1.008,0l2.3,2.3A.714.714,0,0,1,29.177,16.172ZM18.127,27.234l-3.306-3.31,8.547-8.56,3.306,3.31Zm-4.07-1.714L16.531,28l-3.445.971.971-3.449Zm16.3-11.535-2.3-2.3a2.43,2.43,0,0,0-3.363,0L13.05,23.336a.8.8,0,0,0-.212.363l-1.755,6.249a.849.849,0,0,0,.212.816,1.024,1.024,0,0,0,.816.212l6.245-1.759a.8.8,0,0,0,.363-.212L30.357,17.352a2.387,2.387,0,0,0,0-3.368Z" transform="translate(-12.305 -10.992)" fill="#fff"/>
  </g>
</svg>
